# xmcd
#
# Track frame offsets: 
#        150
#        19878
#        41460
#        69423
#        107604
#        134340
#        158434
#        191259
#        218657
#        238319
#
# Disc length: 3563 seconds
#
# Revision: 1
# Processed by: cddbd v1.5.2PL0 Copyright (c) Steve Scherf et al.
# Submitted via: ExactAudioCopy v0.99pb5
#
DISCID=7e0de90a
DTITLE=Various Artist - Healing Green Airs
DYEAR=1996
DGENRE=Folk
TTITLE0=Christopher Dean-Birds in Paradies
TTITLE1=Max Folmer-Waiting for You
TTITLE2=Christa Michell-Water Crystals
TTITLE3=Medwyn Goodall-All for Love
TTITLE4=Carolina-Jay Jayanti 
TTITLE5=Cusco-From a higher Point
TTITLE6=Chris Glassfiels-Gekkabijn
TTITLE7=Potsch Potschka-Follow the Dream of Life
TTITLE8=Gregor Theelen-Pcean of Home
TTITLE9=Aeoliah-Chintamani:The Treasure
EXTD=YEAR: 1996
EXTT0=
EXTT1=
EXTT2=
EXTT3=
EXTT4=
EXTT5=
EXTT6=
EXTT7=
EXTT8=
EXTT9=
PLAYORDER=
